<svg width="24" height="24" viewBox="0 0 24 24" fill="none" xmlns="http://www.w3.org/2000/svg">
<path d="M0 1.02857C0 0.755777 0.108367 0.494156 0.301261 0.301261C0.494156 0.108367 0.755777 0 1.02857 0H1.79383C3.09669 0 3.8784 0.876343 4.32411 1.69097C4.62171 2.23406 4.83703 2.86354 5.00571 3.43406C5.05134 3.43046 5.09709 3.42863 5.14286 3.42857H22.283C23.4213 3.42857 24.2441 4.51749 23.9314 5.61326L21.4245 14.4027C21.1997 15.1911 20.7242 15.8848 20.0699 16.3787C19.4156 16.8726 18.6182 17.1399 17.7984 17.1401H9.64114C8.81485 17.1401 8.01141 16.8688 7.35432 16.3678C6.69723 15.8668 6.22286 15.1639 6.00411 14.3671L4.96183 10.5655L3.23383 4.73966L3.23246 4.72869C3.01851 3.95109 2.81829 3.22286 2.51931 2.67977C2.23269 2.15177 2.00229 2.05714 1.7952 2.05714H1.02857C0.755777 2.05714 0.494156 1.94878 0.301261 1.75588C0.108367 1.56299 0 1.30137 0 1.02857Z" fill="#425C56"/>
<path d="M8.91424 24C9.6417 24 10.3394 23.711 10.8537 23.1966C11.3681 22.6822 11.6571 21.9846 11.6571 21.2571C11.6571 20.5297 11.3681 19.832 10.8537 19.3176C10.3394 18.8033 9.6417 18.5143 8.91424 18.5143C8.18679 18.5143 7.48914 18.8033 6.97475 19.3176C6.46037 19.832 6.17139 20.5297 6.17139 21.2571C6.17139 21.9846 6.46037 22.6822 6.97475 23.1966C7.48914 23.711 8.18679 24 8.91424 24Z" fill="#425C56"/>
<path d="M18.5143 24C19.2418 24 19.9394 23.711 20.4538 23.1966C20.9682 22.6822 21.2572 21.9846 21.2572 21.2571C21.2572 20.5297 20.9682 19.832 20.4538 19.3176C19.9394 18.8033 19.2418 18.5143 18.5143 18.5143C17.7869 18.5143 17.0892 18.8033 16.5748 19.3176C16.0605 19.832 15.7715 20.5297 15.7715 21.2571C15.7715 21.9846 16.0605 22.6822 16.5748 23.1966C17.0892 23.711 17.7869 24 18.5143 24Z" fill="#425C56"/>
</svg>
