<svg width="80" height="80" viewBox="0 0 80 80" fill="none" xmlns="http://www.w3.org/2000/svg">
<circle cx="40" cy="40" r="40" fill="white" fill-opacity="0.15"/>
<path d="M19.1334 30.8003H35.4667C36.8512 30.8003 38.2045 30.3898 39.3557 29.6206C40.5068 28.8514 41.404 27.7582 41.9339 26.4791C42.4637 25.2 42.6023 23.7925 42.3322 22.4347C42.0621 21.0768 41.3954 19.8295 40.4164 18.8505C39.4375 17.8716 38.1902 17.2049 36.8323 16.9348C35.4745 16.6647 34.067 16.8033 32.7879 17.3331C31.5088 17.863 30.4156 18.7602 29.6464 19.9113C28.8772 21.0624 28.4667 22.4158 28.4667 23.8003" stroke="white" stroke-width="2.16667" stroke-linecap="round" stroke-linejoin="round"/>
<path d="M21.4666 49.4673H47.1333C48.5177 49.4673 49.8711 49.8778 51.0223 50.647C52.1734 51.4162 53.0706 52.5094 53.6004 53.7885C54.1302 55.0676 54.2689 56.4751 53.9988 57.8329C53.7287 59.1908 53.062 60.4381 52.083 61.417C51.1041 62.396 49.8568 63.0627 48.4989 63.3328C47.141 63.6029 45.7336 63.4643 44.4545 62.9344C43.1754 62.4046 42.0822 61.5074 41.313 60.3563C40.5438 59.2051 40.1333 57.8518 40.1333 56.4673" stroke="white" stroke-width="2.16667" stroke-linecap="round" stroke-linejoin="round"/>
<path d="M16.8 40.1333H56.4667C57.8511 40.1333 59.2045 39.7228 60.3556 38.9536C61.5068 38.1844 62.404 37.0912 62.9338 35.8121C63.4636 34.533 63.6023 33.1255 63.3322 31.7677C63.0621 30.4098 62.3954 29.1625 61.4164 28.1836C60.4374 27.2046 59.1902 26.5379 57.8323 26.2678C56.4744 25.9977 55.067 26.1363 53.7879 26.6661C52.5088 27.196 51.4155 28.0932 50.6464 29.2443C49.8772 30.3955 49.4667 31.7488 49.4667 33.1333" stroke="white" stroke-width="2.16667" stroke-linecap="round" stroke-linejoin="round"/>
</svg>
