<svg width="80" height="80" viewBox="0 0 80 80" fill="none" xmlns="http://www.w3.org/2000/svg">
<circle cx="40" cy="40" r="40" fill="white" fill-opacity="0.15"/>
<path fill-rule="evenodd" clip-rule="evenodd" d="M50.0844 26.9346V44.1882C50.0844 46.0629 49.3764 47.5474 48.2123 48.5332C47.0766 49.4932 45.6115 49.8898 44.2096 49.8304C42.5894 49.7632 40.8969 49.0591 39.7599 47.7464C39.4666 50.1108 40.3116 51.6831 40.6953 52.0979L41.5739 53.0449L39.6798 54.8021L38.8013 53.855C37.7496 52.7206 36.6203 50.0475 37.3426 46.5551C36.2374 46.7878 35.0961 46.7905 33.9898 46.5629C32.8308 46.3174 31.6913 45.789 30.8282 44.9014C29.9445 43.9931 29.4122 42.7695 29.4122 41.2966C29.4122 39.1725 30.1706 37.6376 31.5259 36.5162C32.7792 35.4787 34.4807 34.8559 36.2017 34.2991C36.6048 34.1699 37.017 34.0407 37.4369 33.9076C40.7173 32.8778 44.4448 31.7073 47.9578 28.7356L50.0844 26.9346ZM40.9899 44.1081C41.5339 43.1106 42.2819 42.0434 43.2923 40.9206L44.158 39.9607L42.2367 38.232L41.3711 39.1919C40.092 40.6131 39.1591 41.9956 38.4976 43.307C37.526 44.0202 35.9627 44.3393 34.5247 44.0344C33.7456 43.869 33.1086 43.5396 32.6797 43.099C32.2714 42.6804 31.9962 42.1067 31.9962 41.2953C31.9962 39.8922 32.4484 39.1054 33.1732 38.5046C33.9988 37.8224 35.2456 37.3237 36.9976 36.7565C37.3787 36.6337 37.7793 36.5084 38.194 36.3779C40.8801 35.5394 44.2148 34.498 47.5004 32.3068V44.1882C47.5004 45.3704 47.0779 46.1081 46.5443 46.559C45.9823 47.0345 45.1838 47.2851 44.3182 47.2489C42.6024 47.1779 41.0752 46.0551 40.9899 44.1081Z" fill="white"/>
<path fill-rule="evenodd" clip-rule="evenodd" d="M39.7483 62.0204L39.185 63.1832L39.1798 63.1806L39.1643 63.1729L39.1088 63.1457L38.902 63.0424C38.7237 62.9519 38.4653 62.8176 38.1385 62.6418C34.2662 60.5466 30.6258 58.0487 27.2778 55.1895C21.381 50.1157 15.2 42.5923 15.2 33.2394C15.2 29.0365 16.5915 24.9653 18.974 21.9214C21.3642 18.8709 24.8023 16.7998 28.8463 16.7998C33.65 16.7998 37.2961 19.5221 39.7483 23.3607C42.2018 19.5234 45.8466 16.7998 50.6503 16.7998C54.6944 16.7998 58.1324 18.8709 60.5213 21.9226C62.9064 24.9653 64.2966 29.0352 64.2966 33.2407C64.2966 42.237 58.1053 49.7617 52.2279 54.9104C48.6555 58.0145 44.7652 60.7325 40.6217 63.0191C40.5534 63.0561 40.485 63.0927 40.4163 63.1289L40.3607 63.1586L40.3465 63.1664L40.34 63.169L39.7483 62.0204ZM21.0089 23.5144C18.9998 26.0804 17.784 29.583 17.784 33.2394C17.784 41.4334 23.2312 48.3005 28.9626 53.2308C32.2756 56.0579 35.8865 58.516 39.7315 60.5617L40.1114 60.3498C43.8177 58.2387 47.3059 55.7657 50.525 52.9672C56.2745 47.9284 61.7126 41.0639 61.7126 33.2381C61.7126 29.5817 60.4968 26.0804 58.4877 23.5144C56.4851 20.9575 53.746 19.3838 50.6503 19.3838C46.3686 19.3838 43.0533 22.1836 40.9085 26.5674L39.7483 28.9409L38.5881 26.57C36.4433 22.1836 33.128 19.3838 28.8463 19.3838C25.7506 19.3838 23.0115 20.9575 21.0089 23.5144Z" fill="white"/>
<path d="M39.7483 62.0205L40.34 63.1691L39.7664 63.4637L39.185 63.1833L39.7483 62.0205Z" fill="white"/>
</svg>
