<svg width="80" height="80" viewBox="0 0 80 80" fill="none" xmlns="http://www.w3.org/2000/svg">
<circle cx="40" cy="40" r="40" fill="white" fill-opacity="0.15"/>
<path d="M40.1275 48.9819L27.2546 36.109M40.1275 63.4638V37.7181V63.4638ZM40.1275 39.3273V48.9819V39.3273ZM40.1275 39.3273C40.1275 35.9132 38.7712 32.6389 36.3571 30.2248C33.943 27.8107 30.6687 26.4544 27.2546 26.4544H17.6V36.109C17.6 39.5231 18.9562 42.7974 21.3704 45.2115C23.7845 47.6256 27.0587 48.9819 30.4728 48.9819H40.1275V39.3273ZM40.1275 39.3273H49.7821C53.1962 39.3273 56.4704 37.971 58.8845 35.5569C61.2987 33.1428 62.6549 29.8685 62.6549 26.4544V16.7998H53.0003C49.5862 16.7998 46.3119 18.156 43.8978 20.5702C41.4837 22.9843 40.1275 26.2585 40.1275 29.6726V39.3273ZM40.1275 39.3273L53.0003 26.4544L40.1275 39.3273Z" stroke="white" stroke-width="1.73333"/>
</svg>
