<svg width="34" height="25" viewBox="0 0 34 25" fill="none" xmlns="http://www.w3.org/2000/svg">
<path d="M11.0179 20.5536C11.25 20.3214 11.25 19.9643 11.0179 19.7321L4 12.7143L11.0179 5.69643C11.25 5.46428 11.25 5.10714 11.0179 4.875L10.125 3.98214C9.89286 3.75 9.53572 3.75 9.30357 3.98214L0.982143 12.3036C0.75 12.5357 0.75 12.8929 0.982143 13.125L9.30357 21.4464C9.53572 21.6786 9.89286 21.6786 10.125 21.4464L11.0179 20.5536ZM21.5714 1.5C21.6607 1.19643 21.4821 0.874998 21.1786 0.785713L20.0714 0.482141C19.7857 0.392857 19.4643 0.571428 19.375 0.874998L12.7143 23.9286C12.625 24.2321 12.8036 24.5536 13.1071 24.6429L14.2143 24.9464C14.5 25.0357 14.8214 24.8571 14.9107 24.5536L21.5714 1.5ZM33.3036 13.125C33.5357 12.8929 33.5357 12.5357 33.3036 12.3036L24.9821 3.98214C24.75 3.75 24.3929 3.75 24.1607 3.98214L23.2679 4.875C23.0357 5.10714 23.0357 5.46428 23.2679 5.69643L30.2857 12.7143L23.2679 19.7321C23.0357 19.9643 23.0357 20.3214 23.2679 20.5536L24.1607 21.4464C24.3929 21.6786 24.75 21.6786 24.9821 21.4464L33.3036 13.125Z" fill="#1C2B27"/>
</svg>
